REM DIRINDEX 1\2,1\3,1\4,1\5
REM DIRNAME cjc044,folder01,folder02,folder03,folder04
TITLE ""
FILE "1800_133.mp3" MP3
  TRACK 01 AUDIO
    TITLE "2:cjc044_3965"
    INDEX 01 00:00:00
  TRACK 02 AUDIO
    TITLE "0:"
    INDEX 01 00:00:74
  TRACK 03 AUDIO
    TITLE "3:cjc044_3966"
    INDEX 01 00:01:66
  TRACK 04 AUDIO
    TITLE "0:"
    INDEX 01 00:03:31
  TRACK 05 AUDIO
    TITLE "4:cjc044_3967"
    INDEX 01 00:04:15
  TRACK 06 AUDIO
    TITLE "0:"
    INDEX 01 00:05:24
  TRACK 07 AUDIO
    TITLE "5:cjc044_3968"
    INDEX 01 00:06:12
  TRACK 08 AUDIO
    TITLE "0:"
    INDEX 01 00:09:08
  TRACK 09 AUDIO
    TITLE "2:cjc044_3969"
    INDEX 01 00:10:63
  TRACK 10 AUDIO
    TITLE "0:"
    INDEX 01 00:11:60
  TRACK 11 AUDIO
    TITLE "3:cjc044_3970"
    INDEX 01 00:12:42
  TRACK 12 AUDIO
    TITLE "0:"
    INDEX 01 00:13:57
  TRACK 13 AUDIO
    TITLE "4:cjc044_3971"
    INDEX 01 00:14:39
  TRACK 14 AUDIO
    TITLE "0:"
    INDEX 01 00:15:36
  TRACK 15 AUDIO
    TITLE "5:cjc044_3972"
    INDEX 01 00:16:10
  TRACK 16 AUDIO
    TITLE "0:"
    INDEX 01 00:18:56
  TRACK 17 AUDIO
    TITLE "2:cjc044_3973"
    INDEX 01 00:20:43
  TRACK 18 AUDIO
    TITLE "0:"
    INDEX 01 00:21:53
  TRACK 19 AUDIO
    TITLE "3:cjc044_3974"
    INDEX 01 00:22:38
  TRACK 20 AUDIO
    TITLE "0:"
    INDEX 01 00:23:65
  TRACK 21 AUDIO
    TITLE "4:cjc044_3975"
    INDEX 01 00:24:41
  TRACK 22 AUDIO
    TITLE "0:"
    INDEX 01 00:25:54
  TRACK 23 AUDIO
    TITLE "5:cjc044_3976"
    INDEX 01 00:26:40
  TRACK 24 AUDIO
    TITLE "0:"
    INDEX 01 00:29:38
  TRACK 25 AUDIO
    TITLE "2:cjc044_3977"
    INDEX 01 00:31:22
  TRACK 26 AUDIO
    TITLE "0:"
    INDEX 01 00:32:21
  TRACK 27 AUDIO
    TITLE "3:cjc044_3978"
    INDEX 01 00:32:74
  TRACK 28 AUDIO
    TITLE "0:"
    INDEX 01 00:36:15
  TRACK 29 AUDIO
    TITLE "4:cjc044_3979"
    INDEX 01 00:37:01
  TRACK 30 AUDIO
    TITLE "0:"
    INDEX 01 00:38:00
  TRACK 31 AUDIO
    TITLE "5:cjc044_3980"
    INDEX 01 00:38:57
  TRACK 32 AUDIO
    TITLE "0:"
    INDEX 01 00:41:69
  TRACK 33 AUDIO
    TITLE "2:cjc044_3981"
    INDEX 01 00:43:50
  TRACK 34 AUDIO
    TITLE "0:"
    INDEX 01 00:44:61
  TRACK 35 AUDIO
    TITLE "3:cjc044_3982"
    INDEX 01 00:45:45
  TRACK 36 AUDIO
    TITLE "0:"
    INDEX 01 00:47:44
  TRACK 37 AUDIO
    TITLE "4:cjc044_3983"
    INDEX 01 00:48:28
  TRACK 38 AUDIO
    TITLE "0:"
    INDEX 01 00:49:43
  TRACK 39 AUDIO
    TITLE "5:cjc044_3984"
    INDEX 01 00:50:19
  TRACK 40 AUDIO
    TITLE "0:"
    INDEX 01 00:54:50
  TRACK 41 AUDIO
    TITLE "2:cjc044_3985"
    INDEX 01 00:56:31
  TRACK 42 AUDIO
    TITLE "0:"
    INDEX 01 00:57:41
  TRACK 43 AUDIO
    TITLE "3:cjc044_3986"
    INDEX 01 00:58:22
  TRACK 44 AUDIO
    TITLE "0:"
    INDEX 01 00:59:14
  TRACK 45 AUDIO
    TITLE "4:cjc044_3987"
    INDEX 01 00:59:73
  TRACK 46 AUDIO
    TITLE "0:"
    INDEX 01 01:01:09
  TRACK 47 AUDIO
    TITLE "5:cjc044_3988"
    INDEX 01 01:01:60
  TRACK 48 AUDIO
    TITLE "0:"
    INDEX 01 01:05:56
  TRACK 49 AUDIO
    TITLE "2:cjc044_3989"
    INDEX 01 01:07:41
  TRACK 50 AUDIO
    TITLE "0:"
    INDEX 01 01:08:54
  TRACK 51 AUDIO
    TITLE "3:cjc044_3990"
    INDEX 01 01:09:40
  TRACK 52 AUDIO
    TITLE "0:"
    INDEX 01 01:10:55
  TRACK 53 AUDIO
    TITLE "4:cjc044_3991"
    INDEX 01 01:11:41
  TRACK 54 AUDIO
    TITLE "0:"
    INDEX 01 01:12:52
  TRACK 55 AUDIO
    TITLE "5:cjc044_3992"
    INDEX 01 01:13:40
  TRACK 56 AUDIO
    TITLE "0:"
    INDEX 01 01:17:04
  TRACK 57 AUDIO
    TITLE "2:cjc044_3993"
    INDEX 01 01:18:66
  TRACK 58 AUDIO
    TITLE "0:"
    INDEX 01 01:19:64
  TRACK 59 AUDIO
    TITLE "3:cjc044_3994"
    INDEX 01 01:20:49
  TRACK 60 AUDIO
    TITLE "0:"
    INDEX 01 01:22:44
  TRACK 61 AUDIO
    TITLE "4:cjc044_3995"
    INDEX 01 01:23:28
  TRACK 62 AUDIO
    TITLE "0:"
    INDEX 01 01:24:30
  TRACK 63 AUDIO
    TITLE "5:cjc044_3996"
    INDEX 01 01:25:08
  TRACK 64 AUDIO
    TITLE "0:"
    INDEX 01 01:27:71
  TRACK 65 AUDIO
    TITLE "2:cjc044_3997"
    INDEX 01 01:29:56
  TRACK 66 AUDIO
    TITLE "0:"
    INDEX 01 01:30:52
  TRACK 67 AUDIO
    TITLE "3:cjc044_3998"
    INDEX 01 01:31:34
  TRACK 68 AUDIO
    TITLE "0:"
    INDEX 01 01:32:47
  TRACK 69 AUDIO
    TITLE "4:cjc044_3999"
    INDEX 01 01:33:34
  TRACK 70 AUDIO
    TITLE "0:"
    INDEX 01 01:34:32
  TRACK 71 AUDIO
    TITLE "5:cjc044_4000"
    INDEX 01 01:35:14
  TRACK 72 AUDIO
    TITLE "0:"
    INDEX 01 01:38:55
  TRACK 73 AUDIO
    TITLE "2:cjc044_4001"
    INDEX 01 01:40:36
  TRACK 74 AUDIO
    TITLE "0:"
    INDEX 01 01:41:52
  TRACK 75 AUDIO
    TITLE "3:cjc044_4002"
    INDEX 01 01:42:39
  TRACK 76 AUDIO
    TITLE "0:"
    INDEX 01 01:43:60
  TRACK 77 AUDIO
    TITLE "4:cjc044_4003"
    INDEX 01 01:44:42
  TRACK 78 AUDIO
    TITLE "0:"
    INDEX 01 01:45:59
  TRACK 79 AUDIO
    TITLE "5:cjc044_4004"
    INDEX 01 01:46:45
  TRACK 80 AUDIO
    TITLE "0:"
    INDEX 01 01:49:59
